<svg width="192" height="64" viewBox="0 0 192 64" fill="none" xmlns="http://www.w3.org/2000/svg">
<path d="M65.46 28.5574H56.1149H49.991L40.8052 56.1149L22.4336 1L13.2477 28.5574H1" stroke="#E7C05D" stroke-width="2" stroke-linecap="round" stroke-linejoin="round"/>
<path d="M190.84 28.5574H178.592L169.407 56.1149L151.035 1L141.849 28.5574H129.601" stroke="#E7C05D" stroke-width="2" stroke-linecap="round" stroke-linejoin="round"/>
<path d="M124.369 12.0593C122.806 10.4947 120.949 9.25351 118.905 8.4067C116.861 7.55988 114.671 7.12402 112.459 7.12402C110.246 7.12402 108.056 7.55988 106.012 8.4067C103.968 9.25351 102.111 10.4947 100.548 12.0593L97.3019 15.305L94.0563 12.0593C90.8973 8.90036 86.6128 7.12566 82.1453 7.12566C77.6779 7.12566 73.3934 8.90036 70.2344 12.0593C67.0754 15.2183 65.3007 19.5028 65.3007 23.9703C65.3007 28.4377 67.0754 32.7222 70.2344 35.8812L73.4801 39.1269L97.3019 62.9487L121.124 39.1269L124.369 35.8812C125.934 34.3173 127.175 32.4604 128.022 30.4167C128.869 28.373 129.305 26.1825 129.305 23.9703C129.305 21.7581 128.869 19.5675 128.022 17.5238C127.175 15.4801 125.934 13.6232 124.369 12.0593Z" stroke="#E7C05D" stroke-width="2" stroke-linecap="round" stroke-linejoin="round"/>
</svg>
