<svg width="229" height="76" viewBox="0 0 229 76" fill="none" xmlns="http://www.w3.org/2000/svg">
<path d="M78 33.9184H66.8369H59.5217L48.5488 66.8369L26.6032 1L15.6304 33.9184H1" stroke="#78EE76" stroke-width="2" stroke-linecap="round" stroke-linejoin="round"/>
<path d="M227.771 33.9184H213.141L202.168 66.8369L180.223 1L169.25 33.9184H154.619" stroke="#78EE76" stroke-width="2" stroke-linecap="round" stroke-linejoin="round"/>
<path d="M148.37 14.2106C146.501 12.3416 144.283 10.8589 141.842 9.84739C139.401 8.83584 136.784 8.31519 134.141 8.31519C131.499 8.31519 128.882 8.83584 126.441 9.84739C124 10.8589 121.782 12.3416 119.913 14.2106L116.036 18.0877L112.159 14.2106C108.386 10.4371 103.268 8.31714 97.9312 8.31714C92.5947 8.31714 87.4767 10.4371 83.7031 14.2106C79.9296 17.9841 77.8097 23.1021 77.8097 28.4387C77.8097 33.7752 79.9296 38.8932 83.7031 42.6668L87.5802 46.5438L116.036 75L144.493 46.5438L148.37 42.6668C150.239 40.7986 151.721 38.5805 152.733 36.1392C153.744 33.6979 154.265 31.0813 154.265 28.4387C154.265 25.7961 153.744 23.1794 152.733 20.7381C151.721 18.2968 150.239 16.0787 148.37 14.2106Z" fill="#ED5555" stroke="#ED5555" stroke-width="2" stroke-linecap="round" stroke-linejoin="round"/>
</svg>
